<?xml version="1.0" standalone="no"?>
<!DOCTYPE svg PUBLIC "-//W3C//DTD SVG 1.1//EN" "http://www.w3.org/Graphics/SVG/1.1/DTD/svg11.dtd" >
<svg xmlns="http://www.w3.org/2000/svg">
<metadata>
This is a custom SVG font generated by IcoMoon.
<iconset grid="32"></iconset>
</metadata>
<defs>
<font id="imarcicons" horiz-adv-x="1024" >
<font-face units-per-em="1024" ascent="960" descent="-64" />
<missing-glyph horiz-adv-x="1024" />
<glyph class="hidden" unicode="&#xf000;" d="M0,960L 1024 -64L0 -64 z" horiz-adv-x="0" />
<glyph unicode="&#xe000;" d="M 626.784,447.968l 195.072-195.072c 12.672-12.672, 12.672-33.248,0-45.92l-68.832-68.832
	c-12.672-12.672-33.216-12.672-45.92,0L 512,333.216l-195.104-195.072c-12.672-12.672-33.216-12.672-45.888,0l-68.864,68.832
	c-12.672,12.672-12.672,33.216,0,45.92l 195.104,195.072L 202.144,643.072c-12.672,12.672-12.672,33.248,0,45.92L 271.040,757.824
	c 12.672,12.672, 33.216,12.672, 45.888,0L 512,562.72l 195.104,195.104c 12.672,12.672, 33.216,12.672, 45.92,0l 68.832-68.864
	c 12.672-12.672, 12.672-33.216,0-45.92L 626.784,447.968z"  />
<glyph unicode="&#xe001;" d="M 927.936,687.008l-68.288,68.288c-12.608,12.576-32.96,12.576-45.536,0L 404.672,345.856
	L 209.92,542.016c-12.576,12.576-32.928,12.576-45.536,0l-68.288-68.288c-12.576-12.608-12.576-32.96,0-45.536l 285.568-287.488
	c 12.576-12.576, 32.96-12.576, 45.536,0L 927.936,641.472C 940.512,654.016, 940.512,674.432, 927.936,687.008z"  />
<glyph unicode="&#xe009;" d="M 1015.040,768L 960,768 L 4.928,768 L0,768 l0-48 L0,704 l0-21.312 l0-473.216 L0,192 l0-64 l 64,0 l 896,0 l 62.016,0 L 1024,128 l0,2.56 L 1024,192 l0,15.936 
	L 1024,685.568 L 1024,704 L 1024,768 L 1015.040,768 z M 960,639.232l-251.904-182.4L 960,258.368L 960,192 l-19.2,0 l-286.592,225.856L 519.808,320.512L 500.16,320.512 L 366.72,417.152L 81.216,192L 64,192 l0,67.968 
	l 248.896,196.16L 64,636.288L 64,704 l 29.312,0 l 416.64-301.696L 926.656,704L 960,704 L 960,639.232 z"  />
<glyph unicode="&#xe00a;" d="M 932.992,1.248l-22.688-22.688c-25.12-25.088-65.76-25.088-90.816,0l-181.632,181.568
	c-20.992,21.056-23.328,52.608-8.992,77.184l-99.328,99.264c-53.408-39.616-119.296-63.328-190.88-63.328c-177.28,0-320.992,143.712-320.992,320.992
	c0,177.312, 143.712,321.024, 320.992,321.024c 177.312,0, 320.992-143.712, 320.992-321.024c0-82.528-31.36-157.536-82.56-214.4l 97.12-97.12
	c 24.576,14.304, 56.128,12, 77.12-9.056l 181.632-181.568C 958.048,66.976, 958.048,26.304, 932.992,1.248z M 578.816,595.552
	c0,132.96-107.808,240.736-240.768,240.736S 97.28,728.544, 97.28,595.552s 107.776-240.736, 240.736-240.736S 578.816,462.592, 578.816,595.552z"  />
<glyph unicode="&#x2e;" d="M 1207.296,886.272q-256-227.328 -614.4-768l-117.76-183.296q-147.456,184.32 -475.136,512l 109.568,109.568l 292.864-256q 153.6,153.6 285.696,278.016t 210.432,192t 134.656,113.664t 78.848,60.416l 21.504,14.336q 4.096,0 11.264-2.048t 26.624-19.968t 35.84-50.688z" horiz-adv-x="1207.296"  />
<glyph unicode="&#x27;" d="M 669.696,446.976l 354.304-354.304l-157.696-157.696l-354.304,354.304l-354.304-354.304l-157.696,157.696l 354.304,354.304l-354.304,354.304l 157.696,157.696l 354.304-354.304l 354.304,354.304l 157.696-157.696z"  />
<glyph unicode="&#x3f;" d="M 388.096,658.944q0,36.864 -25.6,62.464t-62.464,25.6t-62.464-25.6t-25.6-62.464t 25.6-62.464t 62.464-25.6t 62.464,25.6t 25.6,62.464zM 600.064,658.944q0-7.168 -1.536-21.504t-17.92-73.216t-44.544-133.12t-90.112-206.848t-145.92-289.28q-83.968,156.672 -145.92,288.768t-90.112,208.896t-44.032,131.072t-17.92,74.752l-2.048,20.48q0,123.904 88.064,211.968t 211.968,88.064t 211.968-88.064t 88.064-211.968z" horiz-adv-x="600.064"  />
<glyph unicode="&#x53;" d="M 667.648,446.976q0,61.44 -44.032,104.448t-105.472,43.008t-104.96-43.008t-43.52-104.448t 43.52-104.448t 104.96-43.008t 105.472,43.008t 44.032,104.448zM 1024,520.704l0-145.408 l-189.44-26.624q-10.24-27.648 -21.504-51.2l 122.88-160.768l-104.448-102.4l-162.816,120.832q-20.48-10.24 -52.224-21.504l-30.72-198.656l-146.432,0 l-27.648,201.728q-21.504,7.168 -44.032,18.432l-164.864-121.856l-103.424,102.4l 123.904,163.84q-11.264,21.504 -19.456,47.104
l-203.776,28.672l0,145.408 l 203.776,28.672q 7.168,21.504 19.456,46.080l-122.88,162.816l 103.424,102.4l 163.84-121.856q 15.36,8.192 48.128,20.48l 28.672,199.68l 146.432,0 l 28.672-199.68q 22.528-7.168 49.152-19.456l 161.792,119.808l 104.448-102.4l-121.856-159.744q 13.312-27.648 20.48-49.152z"  />
<glyph unicode="&#x66;" d="M 832.512,705.024l 20.48,120.832q-44.032,15.36 -146.432,15.36q-80.896,0 -125.952-59.392q-26.624-34.816 -26.624-121.856l0-6.144 l0-36.864 l0-36.864 l-80.896,0 l0-117.76 l 80.896,0 l0-409.6 l 152.576,0 l0,409.6 l 120.832,0 l 9.216,117.76l-130.048,0 l0,36.864 l0,43.008 l0,12.288 q0,43.008 60.416,43.008q 31.744,0 65.536-10.24zM 1024,868.864l0-843.776 q0-36.864 -26.624-63.488t-63.488-26.624l-843.776,0 q-36.864,0 -63.488,26.624t-26.624,63.488l0,843.776 q0,36.864 26.624,63.488t 63.488,26.624l 843.776,0 q 36.864,0 63.488-26.624t 26.624-63.488
z"  />
<glyph unicode="&#x64;" d="M 1207.296,483.84q0-129.024 -80.896-239.104t-220.16-173.568t-303.104-63.488q-124.928,0 -239.616,39.936l 2.048-3.072l-365.568-109.568q 45.056,60.416 72.192,129.536t 32.256,108.032l 4.096,38.912q-108.544,122.88 -108.544,272.384q0,129.024 80.896,238.592t 219.648,173.056t 302.592,63.488t 303.104-63.488t 220.16-173.056t 80.896-238.592z" horiz-adv-x="1207.296"  />
<glyph unicode="&#x74;" d="M 1027.072,446.976q-44.032-49.152 -122.88-47.104q-37.888-155.648 -181.76-249.856t-311.808-94.208q-123.904,0 -230.912,54.272t-179.712,154.624q 76.8-73.728 185.344-73.728q 115.712,0 195.584,84.992q-24.576-4.096 -49.152,7.68t-24.576,35.328q0,27.648 41.984,46.080q-40.96-5.12 -74.752,11.264t-52.224,52.224q 22.528,25.6 70.656,28.672q-100.352,24.576 -114.688,104.448q 27.648,8.192 54.272,8.192l 8.192,0 q-37.888,20.48 -63.488,52.736t-24.576,71.168l 1.024,8.192
q 158.72-60.416 263.168-118.784q 30.72-17.408 77.824-64.512q 32.768,89.088 69.12,154.112t 91.648,100.864q-1.024-16.384 -15.36-31.744q 33.792,32.768 79.872,38.912q-3.072-23.552 -54.272-41.984q 7.168,2.048 26.112,9.728t 33.792,11.776t 26.112,4.096q 15.36,0 15.36-11.264q0-8.192 -16.896-16.384t-43.52-15.872t-28.672-8.704q 82.944,8.192 144.896-52.736t 78.336-145.92q 18.432-6.144 36.864-6.144q 51.2,0 84.992,19.456q-13.312-30.72 -44.544-48.128
t-68.096-19.456q 34.816-15.36 84.992-15.36q 16.384,0 31.744,3.072z" horiz-adv-x="1027.072"  />
<glyph unicode="&#x79;" d="M 625.664,231.936l0-136.192 q0-21.504 -18.432-21.504q-14.336,0 -25.6,11.264l0,161.792 q 10.24,10.24 22.528,10.24q 21.504,0 21.504-25.6zM 821.248,228.864l0-28.672 l-46.080,0 l0,28.672 q0,27.648 23.552,27.648q 22.528,0 22.528-27.648zM 264.192,336.384l 62.464,0 l0,51.2 l-183.296,0 l0-51.2 l 61.44,0 l0-300.032 l 59.392,0 l0,300.032 zM 423.936,36.352l 52.224,0 l0,259.072 l-52.224,0 l0-196.608 q-17.408-19.456 -31.744-19.456q-13.312,0 -13.312,17.408l0,198.656 l-53.248,0 l0-218.112 q0-45.056 36.864-45.056q 30.72,0 61.44,32.768l0-28.672 z
M 679.936,90.624l0,143.36 q0,64.512 -51.2,64.512q-25.6,0 -47.104-23.552l0,112.64 l-53.248,0 l0-351.232 l 53.248,0 l0,20.48 q 22.528-23.552 50.176-23.552q 48.128,0 48.128,57.344zM 875.52,110.080l0,19.456 l-54.272,0 q0-2.048 0.512-13.312t0-15.872t-2.56-11.776t-7.168-10.24t-14.336-3.072q-10.24,0 -15.872,6.144t-6.144,12.288t-0.512,17.408l0,49.152 l 100.352,0 l0,65.536 q0,35.84 -19.456,56.32t-55.296,20.48q-34.816,0 -57.856-20.992t-23.040-55.808l0-115.712 q0-36.864 19.968-58.88
t 56.832-22.016q 78.848,0 78.848,80.896zM 948.224,203.264q0-50.176 -6.144-148.48q-4.096-51.2 -39.424-81.408t-86.528-32.256q-101.376-5.12 -304.128-5.12q-203.776,0 -304.128,5.12q-51.2,2.048 -86.528,32.256t-39.424,81.408q-6.144,98.304 -6.144,148.48t 6.144,148.48q 4.096,51.2 39.424,81.408t 86.528,32.256q 100.352,5.12 304.128,5.12t 304.128-5.12q 51.2-2.048 86.528-32.256t 39.424-81.408q 6.144-98.304 6.144-148.48zM 322.56,960l 74.752,0 
l-56.32-168.96q-4.096-12.288 -10.24-28.16t-10.752-28.672t-7.68-28.16l0-180.224 l-73.728,0 l0,172.032 q-2.048,12.288 -29.696,87.040l-58.368,175.104l 74.752,0 l 47.104-173.056l 5.12,0 zM 517.12,600.576l0,175.104 q0,10.24 -9.216,16.896t-19.456,6.656t-18.432-6.656t-8.192-16.896l0-175.104 q0-26.624 26.624-26.624q 28.672,0 28.672,26.624zM 583.68,771.584l0-165.888 q0-43.008 -25.6-65.536t-69.632-22.528q-41.984,0 -68.096,24.064t-26.112,65.024l0,165.888 
q0,39.936 28.16,60.928t 69.12,20.992q 38.912,0 65.536-22.528t 26.624-60.416zM 826.368,846.336l0-320.512 l-65.536,0 l0,35.84 q-37.888-39.936 -75.776-39.936q-46.080,0 -46.080,57.344l0,267.264 l 65.536,0 l0-245.76 q0-21.504 17.408-21.504t 38.912,24.576l0,242.688 l 65.536,0 z"  />
<glyph unicode="&#x21;" d="M 642,896L 176,896 C 158.336,896, 144,881.664, 144,864l0-832 c0-17.664, 14.336-32, 32-32l 640,0 c 17.664,0, 32,14.336, 32,32L 848,698 L 642,896z M 713.616,456.8
	c-6.656-0.992-11.84-2.688-15.536-5.12c-6.368-4.4-11.344-12-14.912-22.816l-80.032-268.912l-20.128,0 l-71.76,210.32l-3.008,0 l-76.912-210.32
	l-17.872,0 l-89.264,268.912c-3.968,11.344-7.936,18.544-11.904,21.632c-3.968,3.088-10.16,5.184-18.496,6.32l0,10.64 l 128.288,0 l0-10.64 
	c-10.512-0.992-17.696-2.496-21.616-4.496c-3.888-1.968-5.84-6.528-5.84-13.632c0-1.84, 0.224-4.016, 0.64-6.496
	c 0.416-2.496, 1.040-5.056, 1.92-7.76l 53.408-152.576l 0.896,0 l 49.808,127.664c 0.272,0.72-1.76,7.216-6.096,19.504
	c-4.336,12.272-7.36,19.808-9.072,22.688c-3.248,5.088-6.848,8.72-10.752,10.864c-3.904,2.128-10.944,3.552-21.152,4.272l0,10.64 l 136.192,0 
	l0-10.64 c-12.496-0.992-20.816-2.336-24.992-4.064s-6.288-5.536-6.288-11.504c0-1.424, 0.432-4.16, 1.376-8.224
	c 0.912-4.032, 2.528-9.632, 4.784-16.72l 49.056-137.76l 46.688,140.752c 0.848,2.56, 1.568,5.296, 2.128,8.208
	c 0.56,2.928, 0.88,6.16, 0.88,9.696c0,8.096-3.056,13.504-9.152,16.192c-3.68,1.696-10.72,2.864-21.056,3.424l0,10.64 l 79.776,0 L 713.616,456.8 z
	 M 642,698l0,160 l 160-160L 642,698 z"  />
<glyph unicode="&#x22;" d="M 512.080,420.656l-40,0 l0-135.28 l 40,0 c 20.464,0, 34.736,10.080, 42.832,30.24c 4.4,11.056, 6.608,24.24, 6.608,39.52
		c0,21.088-3.312,37.28-9.92,48.592C 544.976,415.008, 531.792,420.656, 512.080,420.656zM 320.992,420.656l-39.024,0 l0-61.024 l 39.024,0 c 9.888,0, 17.568,2.48, 23.056,7.456s 8.224,12.848, 8.224,23.632s-2.736,18.464-8.224,23.056
		S 330.864,420.656, 320.992,420.656zM 650,904.432L 184,904.432 c-17.664,0-32-14.336-32-32l0-832 c0-17.664, 14.336-32, 32-32l 640,0 c 17.664,0, 32,14.336, 32,32L 856,706.432 L 650,904.432z
		 M 377.088,339.088c-12.128-10.128-29.456-15.184-51.984-15.184l-43.152,0 l0-74.528 l-43.024,0 L 238.928,456.656 l 88.992,0 c 20.512,0, 36.88-5.344, 49.072-16.032
		c 12.192-10.688, 18.304-27.232, 18.304-49.648C 395.296,366.512, 389.232,349.216, 377.088,339.088z M 588.928,288.048
		c-15.008-25.776-38.192-38.672-69.52-38.672l-89.376,0 L 430.032,456.656 l 89.376,0 c 12.848-0.192, 23.536-1.68, 32.080-4.496
		c 14.544-4.784, 26.336-13.552, 35.328-26.304c 7.216-10.32, 12.16-21.472, 14.784-33.472s 3.936-23.44, 3.936-34.32
		C 605.536,330.512, 600,307.168, 588.928,288.048z M 785.808,419.952l-104.768,0 l0-47.664 l 91.824,0 l0-36 l-91.824,0 l0-86.912 l-43.024,0 L 638.016,456.368 l 147.792,0 L 785.808,419.952 z
		 M 650,706.432l0,160 l 160-160L 650,706.432 z"  />
<glyph unicode="&#xd4;" d="M 102.5,253.5l0,549 q0,29.5 19,48t 49.5,18.5l 252,0 q 30.5,0 49.5-18.5t 19-48l0-549 q0-25.5 -18-43.5t-43.5-18l-266,0 q-25.5,0 -43.5,18t-18,43.5zM 139.5,327l 315,0 l0,406.5 l-315,0 l0-406.5 zM 233.5,811.5q0-13.5 12.5-13.5l 102,0 q 12.5,0 12.5,13.5t-12.5,13.5l-102,0 q-12.5,0 -12.5-13.5zM 258,257.5q0-15.5 11.25-27.25t 27.75-11.75t 27.75,11.75 t 11.25,27.25q0,16.5 -11.25,27.75t-27.75,11.25t-27.75-11.25t-11.25-27.75z" horiz-adv-x="593.5" />
<glyph unicode="&#x73;" d="M 41,232q0,21.5 12,37l 105.5,106.5l 103.5,42q-54.5,65.5 -54,149.5q0,93 67.5,159.5t 160.5,66.5q 92,0 159.75-67.5t 67.75-159.5q0-96.5 -65.5-162q-67.5-67.5 -162-67.5q-83,0 -148.5,54l-41.5-102l-106.5-106.5q-17-12.5 -37-12.5q-24.5,0 -43,19t-18.5,43.5zM 296,566q0-59.5 41-100.5q 43-41 99-41 q 57.5,0 98.5,41.5t 41,100q0,56.5 -41.5,97.75t-98,41.25q-57.5,0 -98.75-41.5t-41.25-97.5z" horiz-adv-x="704.5" />
<glyph unicode="&#x23;" d="M 30.5,265.5q0,20.5 10.5,37l 302,522.5q 20.5,37 63.5,36.5q 42,0 63.5-36.5l 302-522.5q 9-16.5 9.5-37q0-31.5 -21.5-52.5t-52.5-21l-602,0 q-30.5,0 -52.75,21.5t-22.25,52zM 346,325q0-25.5 18-43t 43.5-17.5t 43.5,17.5t 18,43q0,26.5 -18,44.5t-43.5,18q-26.5,0 -44-18t-17.5-44.5zM 352.5,445l 109.5,0 l0,244.5 l-109.5,0 l0-244.5 z" horiz-adv-x="812" />
<glyph unicode="&#x2c;" d="M 61.5,654q0,91 64,155t 156.25,64t 157.25-64t 65-155q0-17.5 -3.25-35.5t-11.25-37.5t-14.25-33.25t-19.5-34.75t-19.5-30.75t-22-31.75t-18.75-27q-84.5-121.5 -104.5-237q-1-6.5 -1-7q-1-4 -3.75-6t-5.25,0t-3.5,6q-2,12.5 -7.25,35t-32.75,86.5t-67.5,122.5q-72.5,101.5 -87.5,133 q-21,44.5 -21,97.5zM 200.5,649.5q0-36 24.5-61.5t 58.5-25.5q 36,0 60.5,25.75t 24.5,61.5t-24.5,59.75t-60.5,24q-34,0 -58.5-24.5t-24.5-59.5z" horiz-adv-x="558" />
<glyph unicode="&#x3d;" d="M 61.5,501q0,138 97.25,235.5t 235.25,97.5q 137,0 235-97.25t 98-235.75q0-137 -97.75-234.75t-235.25-97.75q-138,0 -235.25,97.75t-97.25,234.75zM 337,673.5q0-24.5 16.75-42t 41.5-17.5t 41.5,16.75t 16.75,42.75q0,23.5 -16.75,40.25t-41.5,16.75t-41.5-16.75t-16.75-40.25zM 346,278l 99.5,0 l0,285.5 l-99.5,0  l0-285.5 z" horiz-adv-x="788" />
<glyph unicode="&#x24;" d="M 61.5,501q0,138 97.25,235.5t 235.25,97.5q 137,0 235-97.25t 98-235.75q0-137 -97.75-234.75t-235.25-97.75q-138,0 -235.25,97.75t-97.25,234.75zM 262,587.5l 106.5,0 q0,47 23.5,47q 22.5,0 22.5-47q0-54.5 -57-54.5q-9,0 -16.5,1l0-100.5 l 106.5,0 l0,42 q 79,20.5 79,112q0,58.5 -37.5,95.75t-96,37.25 q-64.5,0 -97.75-34.25t-33.25-98.75zM 332,325q0-25.5 18.25-44.5t 44-19t 44,19t 18.25,44.5t-18.25,44.5t-44,19t-44-19t-18.25-44.5z" horiz-adv-x="788" />
<glyph unicode="&#x6d;" d="M 102.5,230l0,416.5 l 212-199.5zM 142.5,192l 212,216l 110.5-104.5l 112.5,106.5l 211-218l-646,0 zM 153.5,701l 622.5,0 l-311-296zM 617.5,448l 211,198.5l0-416.5 z" horiz-adv-x="930.5" />
<glyph unicode="&#x20;" horiz-adv-x="512" />
</font>
</defs>
</svg>
